<svg xmlns="http://www.w3.org/2000/svg" width="330" height="210" viewBox="0 0 330 210" fill="none"><defs><symbol id="m-elica" viewBox="0 0 80.6 24.05"><path clip-rule="evenodd" d="m23.66 0h4.56v23.66h-4.56zm-1.95 16.7h-16.84c.77738 2.26 3.01 3.62 6.12 3.62h.6087c2.81 0 4.43-.8786 5.07-1.99h4.87c-.6759 3.08-3.82 5.68-10.24 5.68-6.8 0-11.29-3.35-11.29-9.06-.10146346-5.21 5.27-8.59 11.29-8.52 6.53 0 10.41 3.65 10.41 8.62zm-4.77-3.45c-.1358-1.89-2.3-3.14-5.34-3.14h-.6087c-3.14 0-5.21 1.15-6.02 3.14zm18.33-13.25h-4.97v4.77h4.97zm-.2029 6.76h-4.56v16.9h4.56zm13.03-.33879c6.09 0 9.94 2.6 10.48 6.25h-4.8c-.5744-1.62-2.54-2.4-5.34-2.4h-.6088c-4.13 0-6.32 2.26-6.32 4.93 0 2.67 2.2 4.93 6.32 4.93h.6088c2.77 0 4.97-.98 5.31-2.4h4.8c-.5417 3.38-3.85 6.25-10.45 6.25-7.13 0-11.23-3.72-11.23-8.79-.0015-5 4.29-8.79 11.22-8.79zm27.43 6.32-7.81.4729c-5.31.3714-7.71 2.13-7.71 5.37 0 3.38 2.5 5.41 7.88 5.41 3.79 0 6.39-1.18 7.78-2.57 0 .8458.1014 1.59.2701 2.23h4.56c-.2701-.9473-.4059-2.2-.4059-3.72v-6.86c0-4.36-3.52-6.66-9.77-6.66-5.48 0-9.4 2.4-9.6 5.58h4.63c.2029-1.05 1.99-1.89 4.56-1.89h.6088c3.15 0 5 .8458 5 2.43zm0 4.12c0 2.2-2.57 3.45-6.46 3.45h-.6088c-2.71 0-3.82-.7772-3.82-1.86 0-.9458.8804-1.55 3.21-1.69l7.68-.4729z" fill="#666f7d" fill-rule="evenodd"/></symbol></defs><use href="#m-elica" x="28" y="16.0" width="118" height="35.2" /><use href="#m-elica" x="179" y="121.0" width="118" height="35.2" /></svg>
