<svg viewBox="0 0 161 26.97" fill="none" xmlns="http://www.w3.org/2000/svg"><path d="M12.37 6.01C12.37 7.2 12 8.36 11.33 9.35C10.65 10.34 9.68 11.11 8.55 11.57C7.42 12.02 6.18 12.14 4.98 11.91C3.78 11.68 2.68 11.11 1.81 10.27C0.95 9.42 0.36 8.35 0.12 7.19C-0.12 6.02 0 4.81 0.47 3.71C0.94 2.61 1.73 1.67 2.75 1.01C3.77 0.35 4.96 0 6.18 0C7.82 0 9.4 0.63 10.56 1.76C11.71 2.89 12.37 4.42 12.37 6.01Z" fill="#666f7d"/><path d="M27.68 6.11C27.68 7.3 27.31 8.47 26.63 9.46C25.95 10.44 24.99 11.21 23.86 11.67C22.73 12.13 21.48 12.24 20.29 12.01C19.09 11.78 17.98 11.21 17.12 10.37C16.25 9.53 15.67 8.45 15.43 7.29C15.19 6.12 15.31 4.91 15.78 3.81C16.25 2.71 17.04 1.78 18.06 1.11C19.07 0.45 20.27 0.1 21.49 0.1C23.13 0.1 24.7 0.74 25.86 1.86C27.02 2.99 27.67 4.52 27.68 6.11Z" fill="#666f7d"/><path d="M12.37 20.98C12.37 22.17 12.01 23.34 11.33 24.33C10.65 25.31 9.68 26.09 8.55 26.54C7.42 27 6.18 27.12 4.98 26.88C3.78 26.65 2.68 26.08 1.81 25.24C0.95 24.4 0.36 23.33 0.12 22.16C-0.12 20.99 0 19.79 0.47 18.69C0.94 17.59 1.73 16.65 2.75 15.99C3.76 15.33 4.96 14.97 6.18 14.97C7.82 14.97 9.39 15.61 10.55 16.73C11.71 17.86 12.37 19.39 12.37 20.98Z" fill="#666f7d"/><path d="M27.68 20.98C27.68 22.17 27.31 23.34 26.63 24.33C25.96 25.31 24.99 26.09 23.86 26.54C22.73 27 21.49 27.12 20.29 26.88C19.09 26.65 17.98 26.08 17.12 25.24C16.25 24.4 15.67 23.33 15.43 22.16C15.19 20.99 15.31 19.79 15.78 18.69C16.25 17.59 17.04 16.65 18.06 15.99C19.07 15.33 20.27 14.97 21.49 14.97C23.13 14.97 24.7 15.61 25.86 16.73C27.02 17.86 27.67 19.39 27.68 20.98Z" fill="#666f7d"/><path d="M54.91 0.61H65.12V26.53H54.91V16.98H48.1V26.53H37.89V0.61H48.1V9.57H54.91V0.61Z" fill="#666f7d"/><path d="M101.33 10.5H101.48C102.86 7.2 105.98 6.68 107.92 6.68C114.66 6.68 114.85 11.61 114.85 13.05V26.53H105.25V15.36C105.25 14.29 105.29 12.73 103.57 12.73C101.86 12.73 101.86 14.33 101.86 15.36V26.55H92.26V7.13H101.33V10.5Z" fill="#666f7d"/><path d="M117.22 20.53C118.9 21.24 121.48 22.09 124.3 22.09C126.78 22.09 127.81 21.57 127.81 20.79C127.81 19.53 125.52 19.65 124.27 19.42C120.15 18.72 116.46 17.57 116.46 13.27C116.46 9.75 119.05 6.67 127.85 6.67C130.02 6.68 132.19 6.91 134.32 7.37C134.5 7.41 135.39 7.6 135.76 7.7V12.81C134.82 12.53 134.58 12.46 134.35 12.39C132.54 11.86 130.66 11.59 128.76 11.56C127.35 11.56 125.46 11.68 125.46 12.86C125.46 13.64 126.45 13.86 128.54 14.04C131.97 14.38 136.8 15.08 136.8 20.01C136.8 22.49 135.2 26.97 125.34 26.97C122.6 26.95 119.87 26.57 117.23 25.86L117.22 20.53Z" fill="#666f7d"/><path d="M79.56 21.97C79.12 21.97 78.7 21.85 78.33 21.61C77.97 21.38 77.69 21.04 77.52 20.65C77.36 20.26 77.31 19.83 77.4 19.41C77.48 19 77.69 18.62 78 18.32C78.31 18.02 78.7 17.81 79.13 17.73C79.56 17.65 80 17.69 80.4 17.85C80.8 18.01 81.15 18.29 81.39 18.64C81.63 18.99 81.76 19.41 81.76 19.83C81.76 20.4 81.53 20.94 81.12 21.34C80.7 21.75 80.14 21.97 79.56 21.97ZM79.06 6.68C75.89 6.7 72.73 7.1 69.65 7.87V12.95C71.87 12.06 74.23 11.54 76.62 11.43C78.56 11.43 81.27 11.77 81.27 13.8V14.4H79.94C74.91 14.4 67.22 14.51 67.22 21.17C67.22 24.39 69.42 26.99 74.18 26.99C76.32 26.99 79.21 26.65 81.12 24.17H81.27V26.54H90.03V14.16C90.03 8.35 84.39 6.68 79.06 6.68Z" fill="#666f7d"/><path d="M150.53 21.97C150.09 21.97 149.67 21.85 149.31 21.61C148.94 21.38 148.66 21.04 148.5 20.65C148.33 20.26 148.28 19.83 148.37 19.41C148.45 19 148.66 18.62 148.97 18.32C149.28 18.02 149.67 17.81 150.1 17.73C150.53 17.65 150.97 17.69 151.37 17.85C151.78 18.01 152.12 18.29 152.36 18.64C152.6 18.99 152.73 19.41 152.73 19.83C152.73 20.4 152.5 20.94 152.09 21.34C151.67 21.75 151.11 21.97 150.53 21.97ZM150.03 6.68C146.66 6.68 143.29 7.01 139.99 7.69V12.81C140.66 12.54 144.56 11.42 147.6 11.42C149.52 11.42 152.24 11.76 152.24 13.79V14.38H150.91C145.88 14.38 138.19 14.5 138.19 21.16C138.19 24.38 140.39 26.98 145.16 26.98C147.29 26.98 150.18 26.64 152.09 24.16H152.24V26.53H161V14.16C161 8.35 155.36 6.68 150.03 6.68Z" fill="#666f7d"/></svg>
