<?xml version="1.0" standalone="no"?><!DOCTYPE svg PUBLIC "-//W3C//DTD SVG 20010904//EN"
 "http://www.w3.org/TR/2001/REC-SVG-20010904/DTD/svg10.dtd"><svg version="1.0" xmlns="http://www.w3.org/2000/svg"
 viewBox="-2 -2 345.27 51.18"
 preserveAspectRatio="xMidYMid meet"><g transform="translate(0,66) scale(0.1,-0.1)"
fill="#000000" stroke="none"><path d="M12 648 c-17 -17 -17 -429 0 -446 17 -17 429 -17 446 0 17 17 17 429
0 446 -17 17 -429 17 -446 0z m393 -63 c0 -18 -8 -20 -102 -25 -112 -5 -126
-12 -142 -68 l-10 -32 85 0 84 0 0 36 c0 31 3 35 23 32 21 -3 22 -7 21 -101 0
-81 -4 -102 -20 -125 -35 -47 -79 -62 -181 -62 -93 0 -93 0 -93 25 0 25 0 25
94 25 84 0 98 3 120 23 16 14 26 35 28 57 l3 35 -80 0 -80 0 -3 -43 c-3 -38
-6 -43 -25 -40 -21 3 -22 7 -21 101 2 111 14 138 75 170 27 14 54 17 129 15
87 -3 95 -5 95 -23z"/><path d="M700 425 l0 -195 50 0 50 0 0 80 0 80 95 0 95 0 0 40 0 40 -95 0 -95
0 0 35 0 35 140 0 140 0 0 40 0 40 -190 0 -190 0 0 -195z"/><path d="M1344 606 c-17 -8 -43 -29 -57 -47 -20 -28 -123 -206 -176 -306 -11
-22 -10 -23 38 -23 49 0 51 1 77 45 l26 45 128 0 127 0 24 -45 c24 -45 24 -45
77 -45 30 0 52 3 50 8 -1 4 -47 92 -101 195 l-98 187 -42 0 c-23 -1 -56 -7
-73 -14z m94 -153 l34 -63 -86 0 c-47 0 -86 4 -86 9 0 12 38 80 59 104 24 28
42 17 79 -50z"/><path d="M1790 425 l0 -195 155 0 c171 0 206 8 243 55 40 50 19 127 -39 147
-11 4 -8 10 11 25 30 26 33 82 5 114 -37 41 -75 49 -230 49 l-145 0 0 -195z
m289 98 c6 -11 6 -24 0 -35 -8 -15 -24 -18 -104 -18 l-95 0 0 35 0 35 95 0
c79 0 96 -3 104 -17z m25 -155 c8 -13 8 -23 0 -35 -9 -15 -29 -18 -118 -21
l-106 -3 0 41 0 41 106 -3 c89 -3 109 -6 118 -20z"/><path d="M2370 425 l0 -195 190 0 190 0 0 40 0 40 -145 0 -145 0 0 40 0 39
138 3 137 3 0 35 0 35 -137 3 -138 3 0 34 0 35 145 0 145 0 0 40 0 40 -190 0
-190 0 0 -195z"/><path d="M2920 425 l0 -195 45 0 44 0 3 62 c3 58 5 63 27 66 48 7 91 -10 143
-55 68 -58 104 -73 175 -73 l58 1 -34 27 c-19 15 -59 46 -88 69 l-54 41 30 18
c37 22 51 52 51 111 0 39 -5 50 -34 78 -43 40 -67 45 -232 45 l-134 0 0 -195z
m294 96 c23 -26 17 -63 -14 -78 -14 -7 -61 -13 -107 -13 l-83 0 0 55 0 55 93
0 c80 0 97 -3 111 -19z"/></g></svg>
